<?xml version="1.0" standalone="no"?><!DOCTYPE svg PUBLIC "-//W3C//DTD SVG 1.1//EN" "http://www.w3.org/Graphics/SVG/1.1/DTD/svg11.dtd"><svg t="1584341987878" class="icon" viewBox="0 0 1024 1024" version="1.1" xmlns="http://www.w3.org/2000/svg" p-id="1734" xmlns:xlink="http://www.w3.org/1999/xlink" width="200" height="200"><defs><style type="text/css"></style></defs><path d="M868.7 955.9c0.3 1.1 0.5 2.3 0.5 3.4H840L667.8 788 495.7 959.3h-29.2c0-1.3 0.2-2.6 0.6-3.8-3.6-4.3-5.8-9.8-5.8-15.8V576.4c0-13.8 11.2-25.1 25.1-25.1h363.3c13.8 0 25.1 11.2 25.1 25.1v363.3c-0.1 6.2-2.4 11.8-6.1 16.2z m-19-367c0-6.9-5.6-12.5-12.5-12.5H498.9c-6.9 0-12.5 5.6-12.5 12.5v345.5l172.9-172.1c4.7-4.7 12.5-4.7 17.2 0l173.2 172.4V588.9z m0-62.7H486.3c-13.8 0-25.1-11.2-25.1-25.1v-37.6c0-13.8 11.2-25.1 25.1-25.1h363.3c13.8 0 25.1 11.2 25.1 25.1v37.6c0 13.9-11.2 25.1-25 25.1z m0-50.1c0-6.9-5.6-12.5-12.5-12.5H498.9c-6.9 0-12.5 5.6-12.5 12.5v12.5c0 6.9 5.6 12.5 12.5 12.5h338.3c6.9 0 12.5-5.6 12.5-12.5v-12.5z m0 0" p-id="1735"></path><path d="M584.9 208.4H346c-0.6 0-1.1-0.5-1.1-1.1v-9.5c0-0.6 0.5-1.1 1.1-1.1h238.9c0.6 0 1.1 0.5 1.1 1.1v9.5c0 0.6-0.5 1.1-1.1 1.1zM232.8 224.7c-5.7 5.7-15.4 1.7-15.4-6.4v-35.8c0-8 9.7-12.1 15.4-6.4l30.8 17.9c3.5 3.5 3.5 9.2 0 12.8l-30.8 17.9z" p-id="1736"></path><path d="M235.8 268.9c-18.3 0-35.5-7.1-48.4-20-12.9-12.9-20-30.1-20-48.4 0-18.3 7.1-35.5 20-48.4 12.9-12.9 30.1-20 48.4-20s35.5 7.1 48.4 20c12.9 12.9 20 30.1 20 48.4 0 18.3-7.1 35.5-20 48.4-12.9 12.9-30.1 20-48.4 20z m0-124c-30.7 0-55.6 24.9-55.6 55.6s24.9 55.6 55.6 55.6 55.6-24.9 55.6-55.6-25-55.6-55.6-55.6z m0 0" p-id="1737"></path><path d="M664.8 322.6H79c-0.6 0-1.1-0.5-1.1-1.1V312c0-0.6 0.5-1.1 1.1-1.1h585.9c0.6 0 1.1 0.5 1.1 1.1v9.5c-0.1 0.6-0.6 1.1-1.2 1.1z" p-id="1738"></path><path d="M342 484.8H167.4c-0.6 0-1.1-0.5-1.1-1.1v-9.5c0-0.6 0.5-1.1 1.1-1.1H342c0.6 0 1.1 0.5 1.1 1.1v9.5c0 0.6-0.5 1.1-1.1 1.1zM342 600.7H167.4c-0.6 0-1.1-0.5-1.1-1.1v-9.5c0-0.6 0.5-1.1 1.1-1.1H342c0.6 0 1.1 0.5 1.1 1.1v9.5c0 0.6-0.5 1.1-1.1 1.1zM342 716.6H167.4c-0.6 0-1.1-0.5-1.1-1.1V706c0-0.6 0.5-1.1 1.1-1.1H342c0.6 0 1.1 0.5 1.1 1.1v9.5c0 0.6-0.5 1.1-1.1 1.1z" p-id="1739"></path><path d="M349.5 897c0-7-5.6-12.6-12.6-12.6H127.6c-18.2 0-33-13.7-33-30.6V120c0-16.9 14.8-30.6 33-30.6h487.5c18.2 0 33 13.7 33 30.6v180.7c0 7.5 6.1 13.6 13.6 13.6s13.6-6.1 13.6-13.6V120c0-30.8-27-55.8-60.2-55.8H127.6c-33.2 0-60.2 25-60.2 55.8v733.8c0 30.8 27 55.8 60.2 55.8h209.3c7 0 12.6-5.6 12.6-12.6z" p-id="1740"></path></svg>