<svg t="1583908382470" class="icon" viewBox="0 0 1024 1024" version="1.1" xmlns="http://www.w3.org/2000/svg" p-id="2865" width="64" height="64"><path d="M617.359 839.488c-23.02 0-68.406-3.495-116.456-7.202-34.565-2.664-70.301-5.42-100.691-7.12l-1.453-0.236c-31.606-8.664-31.606-34.722-31.606-48.718V479.188c0-30.031 8.65-47.72 29.849-61.071 49.9-31.42 132.253-100.534 123.18-210.393-1.418-17.122 2.757-31.522 12.067-41.634 8.94-9.713 22.222-15.065 37.385-15.065 24.444 0 53.721 15.188 59.84 43.333 0.606 2.777 1.354 5.937 2.181 9.443 8.276 34.929 25.487 107.618-9.54 187.672-2.994 6.435-2.792 12.269 0.536 17.492 6.42 10.073 23.498 16.58 43.52 16.58 13.406 0 33.398-2.874 54.563-5.917 26.584-3.82 56.718-8.152 82.535-8.152 32.103 0 52.43 6.907 62.13 21.12 19.396 28.426 5.09 68.977-10.054 111.901-7.084 20.086-14.415 40.852-18.146 60.367-2.275 11.89-4.401 25.97-6.646 40.881-9.394 62.267-21.076 139.776-58.511 164.214-45.219 29.529-105.91 29.529-154.683 29.529z m-312.862-1.31h-66.082c-21.465 0-38.927-17.457-38.927-38.916V459.648c0-21.465 17.462-38.927 38.927-38.927h66.082c21.465 0 38.927 17.462 38.927 38.927v339.609c0 21.464-17.467 38.921-38.927 38.921z"  p-id="2866"></path></svg>