<?xml version="1.0" standalone="no"?><!DOCTYPE svg PUBLIC "-//W3C//DTD SVG 1.1//EN" "http://www.w3.org/Graphics/SVG/1.1/DTD/svg11.dtd"><svg t="1620379683415" class="icon" viewBox="0 0 1024 1024" version="1.1" xmlns="http://www.w3.org/2000/svg" p-id="7177" xmlns:xlink="http://www.w3.org/1999/xlink" width="200" height="200"><defs><style type="text/css"></style></defs><path d="M693.76 651.52c76.8-104.96 151.04-230.4 151.04-318.72C844.8 149.76 695.04 0 512 0S179.2 149.76 179.2 332.8c0 88.32 74.24 213.76 151.04 318.72C168.96 673.28 0 730.88 0 832c0 124.16 263.68 192 512 192s512-67.84 512-192c0-84.48-128-153.6-330.24-180.48zM512 51.2c154.88 0 281.6 126.72 281.6 281.6 0 122.88-188.16 357.12-281.6 460.8-93.44-103.68-281.6-339.2-281.6-460.8 0-154.88 126.72-281.6 281.6-281.6z m0 921.6C248.32 972.8 51.2 898.56 51.2 832c0-49.92 117.76-112.64 314.88-133.12 64 83.2 121.6 144.64 126.72 151.04 5.12 5.12 11.52 7.68 19.2 7.68s14.08-2.56 19.2-7.68c5.12-6.4 62.72-67.84 126.72-151.04C855.04 719.36 972.8 782.08 972.8 832c0 66.56-197.12 140.8-460.8 140.8z" fill="#ffffff" p-id="7178"></path><path d="M640 320c0-70.4-57.6-128-128-128s-128 57.6-128 128 57.6 128 128 128 128-57.6 128-128z m-204.8 0c0-42.24 34.56-76.8 76.8-76.8s76.8 34.56 76.8 76.8-34.56 76.8-76.8 76.8-76.8-34.56-76.8-76.8z" fill="#ffffff" p-id="7179"></path></svg>