<svg t="1621936746799" class="icon" viewBox="0 0 1024 1024" version="1.1" xmlns="http://www.w3.org/2000/svg" p-id="5897" width="200" height="200"><path d="M512 960C264.97 960 64 759.03 64 512S264.97 64 512 64s448 200.97 448 448-200.97 448-448 448z m0-843.29c-217.97 0-395.29 177.33-395.29 395.29S294.03 907.29 512 907.29 907.29 729.97 907.29 512 729.97 116.71 512 116.71z" fill="#ffffff" p-id="5898"></path><path d="M412.06 749.18c-6.74 0-13.49-2.57-18.63-7.72-10.29-10.29-10.29-26.98 0-37.26L585.6 512.01l-192.18-192.2c-10.29-10.29-10.29-26.98 0-37.26 10.29-10.29 26.97-10.29 37.26 0l192.18 192.19c20.55 20.55 20.55 53.99 0 74.54L430.69 741.46a26.3 26.3 0 0 1-18.63 7.72z" fill="#ffffff" p-id="5899"></path></svg>