<?xml version="1.0" standalone="no"?><!DOCTYPE svg PUBLIC "-//W3C//DTD SVG 1.1//EN" "http://www.w3.org/Graphics/SVG/1.1/DTD/svg11.dtd"><svg t="1583809763649" class="icon" viewBox="0 0 1024 1024" version="1.1" xmlns="http://www.w3.org/2000/svg" p-id="2557" xmlns:xlink="http://www.w3.org/1999/xlink" width="200" height="200"><defs><style type="text/css"></style></defs><path d="M684.4 97H338.3c-99 0-180 81-180 180v470.1c0 99 81 180 180 180h346.1c99 0 180-81 180-180V277c0-99-81-180-180-180z m120 650.1c-0.3 66.2-53.8 119.7-120 120H338.3c-66.2-0.3-119.7-53.8-120-120V277c0.3-66.2 53.8-119.7 120-120H414v1c0 16.6 13.4 30 30 30h136c16.6 0 30-13.4 30-30v-1h74.5c66.2 0.3 119.7 53.8 120 120v470.1z" p-id="2558" fill="#6b9e54"></path><path d="M655 353H371c-16.6 0-30 13.4-30 30s13.4 30 30 30h284c16.6 0 30-13.4 30-30s-13.4-30-30-30zM655 479H371c-16.6 0-30 13.4-30 30s13.4 30 30 30h284c16.6 0 30-13.4 30-30s-13.4-30-30-30zM526 606H371c-16.6 0-30 13.4-30 30s13.4 30 30 30h155c16.6 0 30-13.4 30-30s-13.4-30-30-30z" p-id="2559" fill="#6b9e54"></path></svg>